<svg viewBox="0 0 44 44" fill="none" xmlns="http://www.w3.org/2000/svg">
    <g clip-path="url(#a)">
        <path fill-rule="evenodd" clip-rule="evenodd"
              d="M5 5h34v14.87l-.7.93c-.5.66-.97 1.27-1.43 1.82a11.4 11.4 0 0 1-2.42 2.27c-.44.27-.93.48-1.45.49a1.85 1.85 0 0 1-1.31-.57c-.23-.23-.39-.5-.5-.78a5.15 5.15 0 0 1-.27-1.83c0-1.38.3-3.11.7-4.85a97.2 97.2 0 0 1 1.1-4.29l-5.43-1.84-8.32 13.68-1.3-.48 1.12-7.47-4.85-1.67L5.71 26.1l-.7.86-.01 7.1.7-1.07 9.52-12.56-1.47 10.67 4.88 1.66 7.53-12.3 1.3.48-.14.9c-.1.64-.22 1.5-.22 2.42 0 .85.1 1.73.38 2.54.28.8.72 1.52 1.44 2.1a5.48 5.48 0 0 0 3.4 1.2c.75 0 1.5-.17 2.26-.48a9.71 9.71 0 0 0 2.26-1.38 16 16 0 0 0 1.45-1.32l.71-.66V39H5V5z"
              fill="url(#b)"/>
        <path d="m19.83 16.38-6.17-2.13L5 25.63v9.83l8.92-11.77-1.1 8.03 6.24 2.13L26.5 21.7c-.36 2.3-.95 7.5 4.11 9.03 3 .9 5.85-.6 8.4-3.2V18.3c-2.5 3.8-4.93 6.54-6.2 6.19-2.12-.6-.2-7.47 1.03-11.9l.02-.07-6.91-2.34-8.22 13.52 1.1-7.31z"
              fill="url(#c)"/>
    </g>
    <defs>
        <linearGradient id="b" x1="22" y1="-3.09" x2="22" y2="42.23" gradientUnits="userSpaceOnUse">
            <stop stop-color="#FFE55B"/>
            <stop offset="1" stop-color="#FC0"/>
        </linearGradient>
        <linearGradient id="c" x1="21.59" y1="4.47" x2="22.15" y2="35.15" gradientUnits="userSpaceOnUse">
            <stop stop-color="#3E3F3A"/>
            <stop offset="1"/>
        </linearGradient>
        <clipPath id="a">
            <circle cx="22" cy="22" r="17"/>
        </clipPath>
    </defs>
</svg>